<svg xmlns:xlink="http://www.w3.org/1999/xlink" xmlns="http://www.w3.org/2000/svg" xml:space="preserve" style="box-shadow: none; border-top-left-radius: 0px; border-top-right-radius: 0px; border-bottom-right-radius: 0px; border-bottom-left-radius: 0px; opacity: 1;" viewBox="-96.69999694824219 294.6000061035156 93.30000305175781 124.39999389648438" y="0px" x="0px" id="Layer_1" width="" height="" preserveAspectRatio="xMidYMid meet" fill="#ffd86d" fill-opacity="1">
<g id="Без_имени-1_xA0_Image_1_">
	<g>
		<path d="M-51,366.5c-3-0.5-6.1-3.4-10.1-3.6c-3.9-0.2-7,1-9.4,3.6c0,1,0.1,2.1-0.4,2.5c-0.7-0.7-0.7,0.2-1.8,0    c0-0.6-0.3-0.9-0.7-1.1c2.4-6.2,10.4-8.7,17.6-6.1C-54.6,363.8-50.8,363.2-51,366.5z"/>
		<path d="M-26.5,372.2c-1.4,0.2-0.9-1.5-1.8-1.8c-2.1,3.4-9.6,5.1-11.9,0.7c-1.1,0-1,1.1-2.5,0.7c-0.5-4.4,3.9-6.8,7.6-8.3    c0.4,0,0.7,0,1.1,0C-30.5,365.2-24.8,367.8-26.5,372.2z M-35.9,367.6c-0.2,1.1,0.8,1.2,1.8,1.1c0-0.5,0-1,0-1.4    C-34.9,367.1-35.4,367.3-35.9,367.6z M-37.7,370.4c-0.9-0.4-0.3-2.3-1.1-2.9C-40.6,368.3-38.2,371.1-37.7,370.4z M-31.9,371.2    c0.7-0.9,2-1.1,2.2-2.5c-0.8-0.1-0.7-1.2-1.8-1.1C-31.5,368.9-31.8,370.6-31.9,371.2z"/>
		<path d="M-51.7,372.6c-1.6,0.3-1.9-0.8-2.2-1.8c-2.3,4.2-11.9,5.8-14,0.4c-1.1,0.8-0.6,3.2-2.5,3.2c-1.1-2.9,1.7-7.4,5-9    c4.2-2,8.8-0.2,11.9,1.4C-53.1,368.8-50.4,370.1-51.7,372.6z M-61.8,369.4c0.5,0,0.8,0.2,1.1,0.4c-0.1-0.9,0.7-0.8,0.4-1.8    C-61.3,368-61.7,368.4-61.8,369.4z M-58.5,372.2c1.5-0.6,2.6-1.7,3.2-3.2c-0.8-0.3-1.6-0.6-2.2-1.1    C-57.1,370.1-58.1,370.9-58.5,372.2z M-66.5,369.7c0.8,0.6,1.8,3,2.9,2.2c-1.3-0.5-0.8-2.8-1.8-3.6    C-65.7,368.8-66.4,369-66.5,369.7z"/>
		<path d="M-54.6,374.4c-1.8,2.8-4.9,4.2-9,4.7c0.7-1.7,2.8-1.4,4.3-2.2c1.5-0.7,2.5-1.9,3.6-2.9C-55.1,373.9-55,374.4-54.6,374.4z"/>
		<path d="M-31.5,378.4c-2.9-0.1-5.6-0.4-7.9-1.1c0-0.4,0-0.7,0-1.1C-37.5,376.2-32.9,376.5-31.5,378.4z"/>
		<path d="M-44.1,303.5c16,3.7,22.8,16.6,26.6,32.4c6.4,0.8,8.5,8.8,5.8,15.8c-0.9,2.2-3.6,4-1.8,6.5c4.8-2.4,9.2,4.4,5.8,9    c2,3.1,1.5,8,0,11.2c-2.4,1.6-4.6,3.3-9,2.9c-0.8,3.4-2.2,6.2-2.9,9.7c4.8,3.1,11.4-1,16.2,0c-0.2,1.9-2.5,2.7-4,3.6    c-4.2,2.7-10.5,5.7-16.9,5.8c-2.7,3.3-5.7,6.3-8.3,9.7c-6.5,1-6.8,7.6-13,8.3c-5.7,0.6-11.1-2.6-14.8-5c-4.5-3-7.5-5.4-10.8-9    c-8.3,2-20.1,0-21.6-8.3c2.3-0.5,3.8,1.5,6.1,1.8c3.3,0.4,6.1-1,9-1.8c-1.1-3.8-3.3-6.6-4-10.8c-2.1,0.5-3.4,2.1-5.4,2.2    c-5.2,0.1-9.2-6.2-6.5-11.2c-3.1-3.1-2.4-9.5,1.4-11.2c1.4-0.2,2.1,0.3,3.2,0.4c0.9-1.2,1.6-2.9,1.4-4.3c-0.2-1.8-2-2.6-2.9-4.3    c-2-4.1-2.1-8.7-2.2-13.3c2.2-1.3,3.8-3.1,7.2-3.2c2.2-18,12.1-28.2,25.9-34.6C-59.6,297.2-45.4,294.6-44.1,303.5z M-55.7,323.6    c-2.5,3.3-5.9,6.7-6.1,11.9c1.3,0.7,2.1-0.2,4,0c2.1-4.8,4.3-9.3,7.9-12.6c-2.1,4.2-5.3,7.2-6.1,12.6c1.3-0.2,1.3-0.3,3.2-0.4    c1.5-3.2,3.8-7.5,6.1-8.6c-1.1,3.2-3.9,4.8-4.3,8.6c1.3-0.2,2.3-0.5,4-0.4c0.8-1.6,1.1-3.7,3.2-4c-0.4,1.3-1.2,2.2-1.4,3.6    c3.2,0.9,3.5-1,5.4-2.2c0.5,1.1-1.1,2.4,0.4,2.2c1.5,1.1,2.4-0.7,4.3-1.1c-0.4,2.1,2.7,0.7,4,1.1c0.6-0.5,0-2.2,1.1-2.2    c0.2,0.8,0.9,1,0.7,2.2c1.1-0.8,2.2,0.5,3.2-0.4c0.4-1.9-1.1-3.7,0-5c1,1.2,0.9,3.7,1.4,5.4c1.2,0.1,2.1,0.6,3.6,0.4    c-0.3-4.8-2.2-9.5-4.7-13.7c-2.3-3.9-4.7-8.3-7.9-10.8c-6-4.6-15.5-6-23.8-2.5c-13.7,4.5-23.2,15.6-24.8,31.8    c1.5,0.3,1.8-0.6,3.2-0.4c0.6-9,4-15.2,9-19.8c-3.4,5.2-7.5,11.5-7.2,19.1c1.4,0.2,2.1-0.3,3.2-0.4c0.1-5.3,2-8.5,4-11.9    c1.7-2.9,3.3-5.8,5.4-7.2c-3.4,5.4-7.3,10.2-7.9,18.4c1.2,0.6,2.2-0.2,3.6-0.4c1.8-7.8,5.8-13.4,10.4-18.4    c-3.1,5.8-7.9,9.9-8.6,18c1.7,0.1,2.4-0.7,4-0.7c-0.3-1.3,0.6-1.5,0.4-2.9c1.1-1.8,1.9-4.2,3.2-6.1c1.3-1.8,2.9-4,4.7-4.3    C-55.9,322.3-55.4,323.2-55.7,323.6z M-52.8,302c1.1,0.5,2.2-0.9,2.5,0c-0.9,1.8-4.8,0.7-5.8,2.5c2.9-1.4,7.4-0.4,9.7-1.4    C-47.6,301-51.4,299.1-52.8,302z M-15,352.4c-0.2-2,1.2-2.5,1.4-4c2.5-12.8-9.7-10.2-21.2-11.2c-1.7-0.1-3.1-0.6-4.3-0.7    c-8.5-0.5-19.2,1.2-28.4,2.5c-6.7,1-17.5,2.2-20.9,6.1c-0.5,4.6-0.7,11.6,3.6,12.6c-0.1-1.7-0.9-3.8-1.1-5.8    c-0.3-2.5-0.5-5.5,0.7-6.5c0.1,1.4-0.2,2.8,0,4.3c0.3,2.9,1.7,8.3,3.6,7.6c0.5-3.5-1.6-9.8,0-12.6c0.2,4.2,0.7,8.8,2.2,12.6    c1,0,1.9,0,2.9,0c0-4.6-1.6-9.4-1.1-13.3c1.4,4.8,1.3,8.9,3.2,13c0.3-1,1.1,0.5,2.2,0c-0.2-3.7-1.1-10.2,0.4-12.2    c0.5,4,0.7,8.2,1.4,11.9c1.6,0.3,2.2-0.5,3.6-0.4c0.3-4.5-0.9-8.8-0.4-11.5c1.5,3.2,1.4,8.2,1.8,11.5c0.8,0,1.7,0,2.5,0    c1-1.4-0.5-5.3,1.1-6.1c0.9,1.4-0.2,4.8,1.1,5.8c1.8,0.2,2.5-0.6,4.3-0.4c0.9-3.2-0.2-9.8,0.7-11.9c1.2,3.4-0.2,10.3,1.8,11.9    c2.4,0,1.3-3.2,1.4-4.7c0.4-4.1,0.4-8.9,1.1-11.5c0.5,5.9-0.2,10.8,0.7,15.8c1.2,0,1.8-0.6,3.2-0.4c0.8-2.3,0.2-8.5,1.8-11.2    c0.2,3.5-0.5,7.9,0.4,10.8c1,0,1.9,0,2.9,0c1.5-4.6,1.1-11.1,2.9-15.5c0,5.4-0.9,9.9-1.1,15.1c0.6,0.5,2.1-0.3,3.6,0    c0.9-3.9,0.6-9,2.2-12.2c0.2,4.7-0.3,9.2-0.7,12.2c1.3,0,2.6,0,4,0c0.6-1.6,0.8-3.7,1.1-5.8s0.1-4.6,1.4-5.8    c0.3,4-1.5,7.8-0.4,11.5c2,0.4,2.1-1.3,3.6-0.4c1-3.2,0.6-8,2.2-11.5c0.5,4.1-0.8,8.3,0,11.5c0.5-1.1,1.6,0.3,2.5,0    c0.8-1.5,1-3.5,1.4-5.4c0.4-2,0.4-4.3,1.8-5.4c-0.3,3-0.5,6.8-1.1,10.4C-16.6,354.2-16.9,352.2-15,352.4z M-18.2,356.4    c0.4,2.5,1.7,6,1.1,8.3c-0.7-1.1-1.2-2.8-1.8-4.3c-0.5-1.3-0.4-3.9-2.5-3.6c-0.8,3.1,1.3,6.9,1.8,10.4c0.2,1.4,0.5,3.7-0.4,4.7    c-0.4-4.1-1.7-7-2.5-10.1c-0.5-1.7-0.3-4-1.8-5c0.2,4.4,2.1,17.2,5.8,20.9c2,2,5.9,1,8.6-0.4c2.1-3.2,2-10.7-4.3-9.4    c-1,0.6-1.6,3-0.7,4.3c1.1,1.4,2.9-1.3,3.2,0.4c-0.4,4.8-5.7,1.9-6.1-1.1c-0.5-3.6,2.2-6.2,5-6.8c-3.5-0.9-2.1-6.5-4-9    C-17,356.2-17.6,356.4-18.2,356.4z M-66.1,359.3c-3.1,0.3-6-0.5-8.6,0.7c0.3,5.2-2.2,9.7-1.1,14c1.4,5.6,5.4,10.8,9.7,13.3    c3-2.3,6-4.6,11.9-4c0-2.2,3.1-5.2,4.7-2.5c-1.1,1-3.1,1-2.5,3.6c1.5,1.4,3.7,0.4,4.7-0.7c1.7,2.4,4.5-0.2,6.1-1.1    c-0.8-2.7-3.3-4.9-4-7.9c-0.5-2.2-1.1-5.9-0.7-8.3c0.6-3.4,5.3-7.6,9-7.9c4.3-0.4,12,2.7,9.4,7.2c-2.8-5.3-10.9-6.5-14.4-2.2    c-4,5-0.6,14.5,3.2,18c0.1,1.1-0.8,1.1-0.7,2.2c2.9,0.2,5.1,1.1,7.6,1.8c2-1.1,3.6-3.3,5-5.4c1.3-1.9,3.5-4.9,3.6-7.2    c0.1-2.2-1.6-5.3-2.2-7.9c-0.7-2.9-1.1-5.5-1.8-8.3C-41.7,355-53.8,358.3-66.1,359.3z M-78.7,360c-2.2,4.5-2.9,10.5-5,15.1    c-0.2-4.7,2.3-9.7,2.9-14.8c-2.7,2.1-1.9,7.7-4.7,9.7c0.8-1.5,0.7-4,1.1-6.1c0.2-1.4,1.7-3,0.4-3.6c-2.8,3.5-1,9.7-4.7,11.9    c8.2,0,3.5,14.1-1.1,8.3c4,0.5,4.6-6.1,1.1-6.1c-2.6,0-3.8,4.6-3.6,5.8c0.6,2.9,4.3,5,7.2,4.3c2.5-0.6,5.3-5.5,6.1-9    c1.2-5.1,1.7-11,2.5-15.5C-77.3,360-78,360-78.7,360z M-12.5,361.1c0.3,1.6,1.9,2.8,0.4,4.3c1.1-0.3,1.3,0.4,2.2,0.4    c0.9-1.5,1.5-3.9,0-5C-10.9,360.7-12,360.6-12.5,361.1z M-89.5,371.9c-0.6-0.3-1.3-0.7-1.1-1.8c0.5-0.1,0.7-0.5,1.4-0.4    c0.2-1.2-0.2-1.7-0.4-2.5C-95.9,366.1-93,377.4-89.5,371.9z M-20.4,385.6c0.5-2.3,0.9-4.3,1.1-6.1c-1.6-0.8-2.2-2.6-3.2-4    C-25.6,378.9-22.3,382.9-20.4,385.6z M-77.3,376.9C-78.2,379.8-76.2,374.5-77.3,376.9L-77.3,376.9z M-79.1,385.2    c-0.4-2.4,1.6-4.4,0.7-6.1C-78.3,381.4-81.7,383.4-79.1,385.2z M-76.9,391.3c-0.3-4.4,3.7-8.9,0.7-11.5    C-77,383-80,388.1-76.9,391.3z M-22.5,389.9c3.2-2.9-1-7.2-2.9-9.4C-27.2,383-24.1,388.7-22.5,389.9z M-75.8,393.8    c3.4,0.7,3.6-4.8,4-8.3c-0.4-0.8-1-1.4-1.8-1.8C-74.6,386.9-75.7,389.9-75.8,393.8z M-29.7,386.6c1.3,1,3.2,1.3,4.7,2.2    c-0.5-1.9-1.5-3.3-2.5-4.7C-28.1,385.2-29.2,385.6-29.7,386.6z M-70.8,393.5c-2.5,1.8-4.7,3.5-6.8,5c-0.6,0.4-2,0.7-1.8,1.8    c9.2-2.6,13.8-9.7,21.6-13.7c0.1-0.4,0.6-0.8,0-1.1C-63.4,387-66.6,390.5-70.8,393.5z M-20.7,396c2.5,0.2,6.9,0.6,8.6-1.4    c-10.8,0.9-16.8-7.9-26.6-7.9c1.9,0.5,3.8,1.8,5.8,2.5c2.2,0.8,4.8,0.7,6.1,2.5c-2.9-0.6-5.9-1.2-8.6-2.2c-2.9-1-5.3-2.5-7.6-2.9    C-38.4,391-29.3,395.2-20.7,396z M-49.5,391c1.7,0,3.3-0.1,4.3-0.7c-1.3-0.6-0.2-3.6-2.2-3.6C-47.7,388.5-49.6,388.7-49.5,391z     M-71.1,391c1.6,0,1.3-1.8,2.9-1.8c-0.1-1.2-1.2-1.4-2.2-1.8C-70.3,388.9-71.4,389.3-71.1,391z M-74.7,402.5    c7-2.9,13.7-8.1,18.4-13c0.5-0.6,2.4-2.1,1.1-2.2c-10.3,3.4-16.4,16-28.8,13.7C-82.7,403.2-78.1,402.3-74.7,402.5z M-66.1,399.6    c5.9-2.4,10.8-5.8,14.4-10.4c-0.1-0.4,0.1-1-0.4-1.1C-57.2,391.5-61,396.2-66.1,399.6z M-23.3,397.1c-7.7-0.8-13.2-3.9-18.7-6.8    C-39,395.4-30.4,398.4-23.3,397.1z M-52.1,392.8c1.1,2.8,7.4,1.8,8.6-0.4C-46.4,392.5-49,393.4-52.1,392.8z M-40.5,400.3    c-1.9-0.5-1-3.8-2.5-4.7c-2.8,0.1-1.3,4.5-2.9,5.8c-0.8-1.8-0.4-2.8-0.7-4.7c-0.9,0.4-2.2,0.4-3.6,0.4c0.2,1.8-0.8,3-1.1,4.7    c-0.4,2.2,0.6,5.1-1.4,6.8c-0.3-1.8,0.2-3.8,0.4-5.4c0.2-3.1,1.1-6.3-0.4-6.8c-1.3,0.4-1.5,2.3-1.8,3.6c-1,4.3-0.7,9.4-0.4,14    c5,2.5,14.9,1.1,14.8-4.7c-0.2-5.6-11.2-6.8-7.9,1.1c0.8,0.2,2.2,0.7,2.9,0c0.3-2-2.8-1.5-1.4-3.6c4.1-0.6,4.2,4.5,2.2,6.1    c-8.4,2.5-8.1-10.9-0.7-11.2c3.8-0.1,7.1,4.6,7.9,7.6c5-1.3,1.3-7.3,1.1-11.5c-1.5-0.9-3-1.8-4.7-2.5    C-41.3,397.3-39.4,398.8-40.5,400.3z M-55.3,396.7c-0.5,0-0.5-0.5-1.1-0.4c-1.8,1.8-4.3,9.1-3.6,13c0.4,2,1.8,3.1,3.6,3.6    C-57.3,407.9-56.7,401.4-55.3,396.7z M-33.3,406.1c2.9-1.3,3.3-3.3,2.2-6.5c-1-0.4-2.1-0.8-3.2-1.1C-34,401-33.5,403.4-33.3,406.1    z M-63.9,401c-1.6,3.9-0.8,8.4,2.9,8.3c-0.6-4,1.3-7.6,0.7-10.4C-61.1,400-62.6,400.5-63.9,401z M-29,401.8c0-0.7,1-0.5,0.7-1.4    c-0.5,0-0.5-0.5-1.1-0.4C-29.2,400.5-29.8,401.8-29,401.8z M-67.9,403.2c0.1,1.2,1.1,1.6,1.8,2.2c-0.1-1.3,0.1-2.3,0.4-3.2    C-66.8,402.1-67.1,402.9-67.9,403.2z"/>
	</g>
</g>
</svg>