<svg xml:space="preserve" style="enable-background:new 0 0 1900 700;" viewBox="0 0 1900 700" y="0px" x="0px" xmlns:xlink="http://www.w3.org/1999/xlink" xmlns="http://www.w3.org/2000/svg" id="Layer_1">
<style type="text/css">
	.st0{fill-rule:evenodd;clip-rule:evenodd;fill:#D8D8D8;}
</style>
<g>
	<path d="M946.8,376.3c-8.7-1.5-17.4-9.7-29-10.3c-11.1-0.6-20.2,2.9-26.9,10.3c0,2.8,0.4,5.9-1,7.2
		c-2-1.9-1.9,0.6-5.2,0c0-1.8-0.8-2.7-2.1-3.1c7-17.7,29.9-25,50.7-17.6C936.4,368.8,947.2,366.9,946.8,376.3z" class="st0" id="XMLID_41_"></path>
	<path d="M1017.1,392.9c-4.1,0.6-2.6-4.3-5.2-5.2c-6.2,9.7-27.7,14.6-34.2,2.1c-3.2-0.1-3,3.3-7.2,2.1
		c-1.5-12.8,11.2-19.7,21.7-23.8c1,0,2.1,0,3.1,0C1005.5,372.5,1022.1,380.1,1017.1,392.9z M990.2,379.4c-0.5,3.2,2.2,3.3,5.2,3.1
		c0-1.4,0-2.8,0-4.1C993,378.1,991.4,378.6,990.2,379.4z M985,387.7c-2.7-1.1-0.9-6.7-3.1-8.3C976.5,381.6,983.4,389.7,985,387.7z
		 M1001.6,389.8c2-2.5,5.8-3.2,6.2-7.2c-2.4-0.3-1.9-3.6-5.2-3.1C1002.6,383.4,1001.8,388.1,1001.6,389.8z" class="st0"></path>
	<path d="M944.7,393.9c-4.5,0.8-5.4-2.2-6.2-5.2c-6.5,12.1-34.2,16.7-40.4,1c-3.2,2.3-1.8,9.3-7.2,9.3
		c-3.1-8.3,4.9-21.4,14.5-25.9c12.1-5.6,25.3-0.4,34.2,4.1C940.6,383,948.4,386.8,944.7,393.9z M915.7,384.6c1.4,0,2.3,0.5,3.1,1
		c-0.4-2.5,1.9-2.3,1-5.2C917.2,380.6,915.8,382,915.7,384.6z M925,392.9c4.4-1.8,7.5-4.9,9.3-9.3c-2.2-0.9-4.6-1.6-6.2-3.1
		C929.3,386.8,926.3,389,925,392.9z M902.3,385.7c2.4,1.8,5.2,8.6,8.3,6.2c-3.6-1.5-2.4-8-5.2-10.3
		C904.3,382.9,902.6,383.6,902.3,385.7z" class="st0"></path>
	<path d="M936.4,399.1c-5.1,8.1-14.2,12-25.9,13.5c1.9-4.9,8.2-4,12.4-6.2c4.2-2.1,7.3-5.5,10.3-8.3
		C935,397.8,935.1,399.1,936.4,399.1z" class="st0" id="XMLID_32_"></path>
	<path d="M1002.6,410.5c-8.4-0.2-16.2-1-22.8-3.1c0-1,0-2.1,0-3.1C985.5,404.3,998.8,405.2,1002.6,410.5
		z" class="st0" id="XMLID_31_"></path>
	<path d="M966.4,195.2c45.9,10.7,65.5,47.7,76.6,93.1c18.3,2.4,24.4,25.3,16.6,45.5c-2.5,6.4-10.3,11.5-5.2,18.6
		c13.7-7,26.5,12.6,16.6,25.9c5.7,8.9,4.4,22.9,0,32.1c-6.9,4.5-13.3,9.5-25.9,8.3c-2.3,9.8-6.3,17.8-8.3,27.9
		c13.8,8.8,32.7-2.8,46.6,0c-0.6,5.4-7.1,7.6-11.4,10.3c-12.2,7.8-30.1,16.3-48.6,16.6c-7.7,9.6-16.3,18.2-23.8,27.9
		c-18.8,2.9-19.5,21.9-37.3,23.8c-16.5,1.7-31.8-7.3-42.4-14.5c-12.8-8.6-21.5-15.5-31-25.9c-24,5.7-57.8-0.1-62.1-23.8
		c6.6-1.3,11,4.3,17.6,5.2c9.4,1.3,17.6-2.7,25.9-5.2c-3.2-10.9-9.4-18.8-11.4-31c-6.1,1.4-9.7,6.1-15.5,6.2
		c-15,0.3-26.5-17.9-18.6-32.1c-9-8.8-6.8-27.2,4.1-32.1c4.2-0.7,5.9,1,9.3,1c2.7-3.5,4.6-8.4,4.1-12.4c-0.6-5.2-5.7-7.4-8.3-12.4
		c-5.9-11.7-6.1-25-6.2-38.3c6.3-3.7,11-9,20.7-9.3c6.3-51.6,34.8-81.1,74.5-99.3C922,177.3,962.8,169.9,966.4,195.2z M933.3,253.2
		c-7.2,9.5-17.1,19.3-17.6,34.2c3.8,2.1,6.2-0.7,11.4,0c5.9-13.8,12.5-26.8,22.8-36.2c-6,11.9-15.2,20.7-17.6,36.2
		c3.8-0.6,3.7-1,9.3-1c4.4-9.1,10.9-21.5,17.6-24.8c-3.3,9.2-11.1,13.7-12.4,24.8c3.6-0.5,6.7-1.5,11.4-1c2.3-4.6,3.1-10.6,9.3-11.4
		c-1,3.8-3.5,6.2-4.1,10.3c9.3,2.5,10.1-2.8,15.5-6.2c1.5,3.1-3.1,6.8,1,6.2c4.4,3.3,6.9-2.1,12.4-3.1c-1.1,5.9,7.7,2,11.4,3.1
		c1.8-1.3,0-6.2,3.1-6.2c0.6,2.2,2.6,3,2.1,6.2c3.1-2.2,6.2,1.6,9.3-1c1.3-5.5-3.2-10.6,0-14.5c3,3.6,2.6,10.5,4.1,15.5
		c3.5,0.3,5.9,1.6,10.4,1c-0.7-13.7-6.3-27.3-13.5-39.3c-6.7-11.3-13.5-24-22.8-31c-17.1-13.1-44.5-17.3-68.3-7.2
		c-39.4,12.8-66.9,44.6-71.4,91.1c4.3,0.8,5.3-1.6,9.3-1c1.8-25.8,11.4-43.8,25.9-56.9c-9.7,14.9-21.4,33-20.7,54.8
		c4.2,0.7,5.9-1,9.3-1c0.2-15.3,5.6-24.5,11.4-34.2c5-8.4,9.5-16.8,15.5-20.7c-9.7,15.5-21,29.3-22.8,52.8c3.5,1.8,6.4-0.5,10.4-1
		c5.3-22.3,16.6-38.6,30-52.8c-8.8,16.7-22.6,28.4-24.8,51.7c4.8,0.3,6.9-2.1,11.4-2.1c-0.7-3.8,1.8-4.4,1-8.3
		c3.3-5.3,5.4-12,9.3-17.6c3.7-5.3,8.3-11.6,13.5-12.4C932.6,249.3,934.2,252,933.3,253.2z M941.6,191.1c3.3,1.4,6.2-2.6,7.2,0
		c-2.6,5.3-13.8,2.1-16.6,7.2c8.2-3.9,21.2-1.1,27.9-4.1C956.5,188.2,945.7,182.7,941.6,191.1z M1050.2,336
		c-0.4-5.6,3.3-7.2,4.1-11.4c7.2-36.8-27.9-29.3-61.1-32.1c-5-0.4-9-1.9-12.4-2.1c-24.5-1.6-55.3,3.3-81.8,7.2
		c-19.2,2.8-50.2,6.2-60,17.6c-1.4,13.2-1.9,33.3,10.4,36.2c-0.2-4.9-2.5-10.9-3.1-16.6c-0.7-7.1-1.6-15.9,2.1-18.6
		c0.3,4-0.5,8,0,12.4c0.9,8.2,4.9,23.9,10.3,21.7c1.4-10.2-4.6-28.2,0-36.2c0.6,12,2,25.3,6.2,36.2c2.8,0,5.5,0,8.3,0
		c0-13.1-4.7-27-3.1-38.3c4,13.8,3.8,25.6,9.3,37.3c1-2.8,3.2,1.4,6.2,0c-0.5-10.7-3-29.3,1-35.2c1.3,11.5,1.9,23.7,4.1,34.1
		c4.6,0.8,6.2-1.4,10.4-1c0.9-13-2.5-25.4-1-33.1c4.4,9.1,4,23.6,5.2,33.1c2.4,0,4.8,0,7.2,0c3-3.9-1.4-15.2,3.1-17.6
		c2.5,4.1-0.6,13.7,3.1,16.6c5.2,0.7,7.2-1.8,12.4-1c2.5-9.3-0.4-28.1,2.1-34.2c3.4,9.6-0.6,29.6,5.2,34.2c7-0.1,3.8-9.3,4.1-13.5
		c1-11.7,1-25.5,3.1-33.1c1.4,16.9-0.5,31,2.1,45.5c3.4,0,5.2-1.7,9.3-1c2.3-6.6,0.7-24.4,5.2-32.1c0.6,10.1-1.3,22.7,1,31
		c2.8,0,5.5,0,8.3,0c4.3-13.3,3.2-32,8.3-44.5c0.1,15.6-2.6,28.5-3.1,43.5c1.7,1.4,6-0.8,10.4,0c2.5-11.3,1.7-25.9,6.2-35.2
		c0.5,13.4-0.8,26.4-2.1,35.2c3.8,0,7.6,0,11.4,0c1.6-4.6,2.2-10.6,3.1-16.6c0.9-6,0.1-13.2,4.1-16.6c0.8,11.5-4.3,22.5-1,33.1
		c5.7,1.2,6-3.6,10.3-1c2.9-9.3,1.7-23.1,6.2-33.1c1.4,11.7-2.3,23.9,0,33.1c1.6-3.1,4.5,0.9,7.2,0c2.4-4.2,2.9-10,4.1-15.5
		c1.2-5.7,1.3-12.4,5.2-15.5c-0.8,8.7-1.4,19.6-3.1,30C1045.7,341.1,1044.6,335.2,1050.2,336z M1040.9,347.4
		c1.1,7.2,4.8,17.3,3.1,23.8c-2.1-3.3-3.4-7.9-5.2-12.4c-1.5-3.7-1.1-11.1-7.2-10.4c-2.4,9,3.7,19.7,5.2,30c0.5,3.9,1.4,10.6-1,13.5
		c-1-11.7-4.9-20.2-7.2-29c-1.3-4.8-0.8-11.5-5.2-14.5c0.6,12.8,6.1,49.4,16.6,60c5.8,5.9,17.1,2.8,24.8-1
		c6.1-9.2,5.8-30.6-12.4-26.9c-2.9,1.7-4.6,8.7-2.1,12.4c3.3,4,8.3-3.8,9.3,1c-1,13.7-16.3,5.6-17.6-3.1
		c-1.5-10.2,6.3-17.7,14.5-19.7c-10-2.4-6.1-18.7-11.4-25.9C1044.4,346.7,1042.9,347.2,1040.9,347.4z M903.3,355.6
		c-8.9,0.7-17.3-1.4-24.8,2.1c0.9,15-6.4,27.8-3.1,40.4c4.2,16,15.5,31.1,27.9,38.3c8.7-6.5,17.3-13.1,34.2-11.4
		c0.1-6.4,8.8-15,13.5-7.2c-3.1,2.7-8.9,2.8-7.2,10.3c4.3,4.1,10.8,1.2,13.5-2.1c5,6.9,12.8-0.6,17.6-3.1
		c-2.3-7.8-9.4-14.1-11.4-22.8c-1.5-6.3-3.3-17-2.1-23.8c1.8-9.7,15.1-21.7,25.9-22.8c12.5-1.2,34.4,7.9,26.9,20.7
		c-8-15.1-31.3-18.7-41.4-6.2c-11.6,14.4-1.6,41.6,9.3,51.7c0.3,3-2.3,3.2-2.1,6.2c8.4,0.6,14.7,3.2,21.7,5.2
		c5.8-3.2,10.5-9.4,14.5-15.5c3.6-5.5,10-14.1,10.4-20.7c0.3-6.4-4.5-15.4-6.2-22.8c-1.9-8.4-3.1-15.9-5.2-23.8
		C973.5,343.3,938.6,352.8,903.3,355.6z M867.1,357.7c-6.3,13-8.4,30.3-14.5,43.5c-0.6-13.5,6.5-27.8,8.3-42.4
		c-7.8,6-5.4,22.2-13.5,27.9c2.4-4.3,2-11.6,3.1-17.6c0.7-3.9,4.9-8.6,1-10.3c-7.9,10.1-3,27.9-13.5,34.1
		c23.5,0.1,10.2,40.4-3.1,23.8c11.5,1.5,13.1-17.4,3.1-17.6c-7.4-0.1-11,13.2-10.3,16.6c1.6,8.3,12.4,14.2,20.7,12.4
		c7.3-1.6,15.1-15.7,17.6-25.9c3.6-14.7,4.8-31.7,7.2-44.5C871.2,357.7,869.1,357.7,867.1,357.7z M1057.5,360.8
		c0.9,4.7,5.6,8,1,12.4c3.2-0.7,3.8,1.1,6.2,1c2.7-4.2,4.4-11.2,0-14.5C1062,359.8,1058.8,359.4,1057.5,360.8z M836,391.9
		c-1.8-0.9-3.6-1.9-3.1-5.2c1.4-0.3,2-1.5,4.1-1c0.6-3.4-0.7-4.8-1-7.2C817.6,375.3,825.9,407.7,836,391.9z M1034.7,431.2
		c1.5-6.7,2.5-12.4,3.1-17.6c-4.5-2.4-6.2-7.6-9.3-11.4C1019.8,412,1029.3,423.7,1034.7,431.2z M871.2,406.4
		C868.5,414.6,874.3,399.4,871.2,406.4L871.2,406.4z M866,430.2c-1.1-7,4.6-12.6,2.1-17.6C868.1,419.4,858.6,425,866,430.2z
		 M872.2,447.7c-1-12.6,10.7-25.5,2.1-33.1C871.9,423.8,863.4,438.4,872.2,447.7z M1028.5,443.6c9.3-8.3-2.8-20.7-8.3-26.9
		C1015.2,423.9,1024,440.3,1028.5,443.6z M875.4,455c9.8,2,10.3-13.7,11.4-23.8c-1.3-2.2-3-3.9-5.2-5.2
		C878.9,435.1,875.8,443.7,875.4,455z M1007.8,434.3c3.7,2.9,9.3,3.8,13.5,6.2c-1.5-5.4-4.4-9.4-7.2-13.5
		C1012.6,430.1,1009.2,431.2,1007.8,434.3z M889.8,454c-7.3,5.2-13.5,10.1-19.7,14.5c-1.8,1.3-5.8,1.9-5.2,5.2
		c26.3-7.5,39.7-27.9,62.1-39.3c0.2-1.2,1.8-2.3,0-3.1C910.9,435.3,901.9,445.4,889.8,454z M1033.7,461.2c7.1,0.7,19.8,1.8,24.8-4.1
		c-31,2.7-48.4-22.6-76.6-22.8c5.4,1.5,10.8,5.2,16.6,7.2c6.2,2.2,13.8,2,17.6,7.2c-8.3-1.8-16.9-3.5-24.8-6.2
		c-8.3-2.8-15.2-7.1-21.7-8.3C982.9,446.9,1009,459,1033.7,461.2z M950.9,446.7c5,0.1,9.4-0.3,12.4-2.1c-3.7-1.8-0.7-10.4-6.2-10.3
		C956.3,439.7,950.7,440.3,950.9,446.7z M888.8,446.7c4.5,0,3.8-5.2,8.3-5.2c-0.3-3.5-3.5-4.1-6.2-5.2
		C891.1,440.8,888.2,441.9,888.8,446.7z M878.5,479.8c20.2-8.2,39.4-23.2,52.8-37.3c1.5-1.6,6.9-6.1,3.1-6.2
		c-29.6,9.7-47,45.9-82.8,39.3C855.7,481.9,868.7,479.3,878.5,479.8z M903.3,471.5c16.9-6.9,30.9-16.7,41.4-30
		c-0.2-1.2,0.2-2.9-1-3.1C929,448.3,917.9,461.7,903.3,471.5z M1026.4,464.3c-22.2-2.3-37.9-11.1-53.8-19.7
		C981.2,459.5,1006,468.2,1026.4,464.3z M943.6,451.9c3.3,8.2,21.4,5.1,24.8-1C959.8,451.1,952.5,453.8,943.6,451.9z M976.8,473.6
		c-5.5-1.4-2.8-11-7.2-13.5c-7.9,0.3-3.6,12.9-8.3,16.6c-2.3-5.1-1.3-8-2.1-13.5c-2.7,1.1-6.4,1.2-10.3,1c0.6,5.1-2.3,8.7-3.1,13.5
		c-1.1,6.3,1.6,14.7-4.1,19.7c-0.8-5.2,0.7-10.8,1-15.5c0.7-8.9,3.1-18.1-1-19.7c-3.6,1.2-4.3,6.6-5.2,10.3c-3,12.3-1.9,27.1-1,40.4
		c14.3,7.2,42.9,3.2,42.4-13.5c-0.4-16-32.3-19.6-22.8,3.1c2.4,0.7,6.2,2.1,8.3,0c0.7-5.9-8-4.3-4.1-10.3c11.8-1.9,12.1,13,6.2,17.6
		c-24.1,7.1-23.4-31.5-2.1-32.1c11-0.3,20.4,13.2,22.8,21.7c14.4-3.7,3.7-21,3.1-33.1c-4.4-2.5-8.7-5.1-13.5-7.2
		C974.5,464.8,980,469.4,976.8,473.6z M934.3,463.3c-1.3-0.1-1.4-1.3-3.1-1c-5.3,5.1-12.5,26-10.4,37.3c1.1,5.7,5.1,9,10.4,10.3
		C928.6,495.5,930.4,476.8,934.3,463.3z M997.5,490.2c8.2-3.6,9.5-9.4,6.2-18.6c-2.9-1.2-6-2.3-9.3-3.1
		C995.6,475.4,997,482.4,997.5,490.2z M909.5,475.7c-4.6,11.2-2.2,24.3,8.3,23.8c-1.6-11.6,3.6-21.9,2.1-30
		C917.7,472.8,913.4,474.1,909.5,475.7z M1009.9,477.8c0-2.1,2.8-1.3,2.1-4.1c-1.3-0.1-1.4-1.3-3.1-1
		C1009.4,474.1,1007.6,477.9,1009.9,477.8z M898.1,481.9c0.4,3.4,3.1,4.5,5.2,6.2c-0.3-3.8,0.2-6.7,1-9.3
		C901.2,478.8,900.3,481,898.1,481.9z" class="st0"></path>
</g>
</svg>
