<svg xml:space="preserve" style="enable-background:new -823 232.2 252 237.8;" viewBox="-823 232.2 252 237.8" y="0px" x="0px" xmlns:xlink="http://www.w3.org/1999/xlink" xmlns="http://www.w3.org/2000/svg" id="Layer_2">
<g>
	<path d="M-695,320.5c-3-0.5-6.1-3.4-10.1-3.6c-3.9-0.2-7,1-9.4,3.6c0,1,0.1,2.1-0.4,2.5c-0.7-0.7-0.7,0.2-1.8,0
		c0-0.6-0.3-0.9-0.7-1.1c2.4-6.2,10.4-8.7,17.6-6.1C-698.6,317.8-694.8,317.2-695,320.5z"></path>
	<path d="M-670.5,326.2c-1.4,0.2-0.9-1.5-1.8-1.8c-2.1,3.4-9.6,5.1-11.9,0.7c-1.1,0-1,1.1-2.5,0.7c-0.5-4.4,3.9-6.8,7.6-8.3
		c0.4,0,0.7,0,1.1,0C-674.5,319.2-668.8,321.8-670.5,326.2z M-679.9,321.6c-0.2,1.1,0.8,1.2,1.8,1.1c0-0.5,0-1,0-1.4
		C-678.9,321.1-679.4,321.3-679.9,321.6z M-681.7,324.4c-0.9-0.4-0.3-2.3-1.1-2.9C-684.6,322.3-682.2,325.1-681.7,324.4z
		 M-675.9,325.2c0.7-0.9,2-1.1,2.2-2.5c-0.8-0.1-0.7-1.2-1.8-1.1C-675.5,322.9-675.8,324.6-675.9,325.2z"></path>
	<path d="M-695.7,326.6c-1.6,0.3-1.9-0.8-2.2-1.8c-2.3,4.2-11.9,5.8-14,0.4c-1.1,0.8-0.6,3.2-2.5,3.2c-1.1-2.9,1.7-7.4,5-9
		c4.2-2,8.8-0.2,11.9,1.4C-697.1,322.8-694.4,324.1-695.7,326.6z M-705.8,323.4c0.5,0,0.8,0.2,1.1,0.4c-0.1-0.9,0.7-0.8,0.4-1.8
		C-705.3,322-705.7,322.4-705.8,323.4z M-702.5,326.2c1.5-0.6,2.6-1.7,3.2-3.2c-0.8-0.3-1.6-0.6-2.2-1.1
		C-701.1,324.1-702.1,324.9-702.5,326.2z M-710.5,323.7c0.8,0.6,1.8,3,2.9,2.2c-1.3-0.5-0.8-2.8-1.8-3.6
		C-709.7,322.8-710.4,323-710.5,323.7z"></path>
	<path d="M-698.6,328.4c-1.8,2.8-4.9,4.2-9,4.7c0.7-1.7,2.8-1.4,4.3-2.2c1.5-0.7,2.5-1.9,3.6-2.9
		C-699.1,327.9-699,328.4-698.6,328.4z"></path>
	<path d="M-675.5,332.4c-2.9-0.1-5.6-0.4-7.9-1.1c0-0.4,0-0.7,0-1.1C-681.5,330.2-676.9,330.5-675.5,332.4z"></path>
	<path d="M-688.1,257.5c16,3.7,22.8,16.6,26.6,32.4c6.4,0.8,8.5,8.8,5.8,15.8c-0.9,2.2-3.6,4-1.8,6.5c4.8-2.4,9.2,4.4,5.8,9
		c2,3.1,1.5,8,0,11.2c-2.4,1.6-4.6,3.3-9,2.9c-0.8,3.4-2.2,6.2-2.9,9.7c4.8,3.1,11.4-1,16.2,0c-0.2,1.9-2.5,2.7-4,3.6
		c-4.2,2.7-10.5,5.7-16.9,5.8c-2.7,3.3-5.7,6.3-8.3,9.7c-6.5,1-6.8,7.6-13,8.3c-5.7,0.6-11.1-2.6-14.8-5c-4.5-3-7.5-5.4-10.8-9
		c-8.3,2-20.1,0-21.6-8.3c2.3-0.5,3.8,1.5,6.1,1.8c3.3,0.4,6.1-1,9-1.8c-1.1-3.8-3.3-6.6-4-10.8c-2.1,0.5-3.4,2.1-5.4,2.2
		c-5.2,0.1-9.2-6.2-6.5-11.2c-3.1-3.1-2.4-9.5,1.4-11.2c1.4-0.2,2.1,0.3,3.2,0.4c0.9-1.2,1.6-2.9,1.4-4.3c-0.2-1.8-2-2.6-2.9-4.3
		c-2-4.1-2.1-8.7-2.2-13.3c2.2-1.3,3.8-3.1,7.2-3.2c2.2-18,12.1-28.2,25.9-34.6C-703.6,251.2-689.4,248.6-688.1,257.5z
		 M-699.7,277.6c-2.5,3.3-5.9,6.7-6.1,11.9c1.3,0.7,2.1-0.2,4,0c2.1-4.8,4.3-9.3,7.9-12.6c-2.1,4.2-5.3,7.2-6.1,12.6
		c1.3-0.2,1.3-0.3,3.2-0.4c1.5-3.2,3.8-7.5,6.1-8.6c-1.1,3.2-3.9,4.8-4.3,8.6c1.3-0.2,2.3-0.5,4-0.4c0.8-1.6,1.1-3.7,3.2-4
		c-0.4,1.3-1.2,2.2-1.4,3.6c3.2,0.9,3.5-1,5.4-2.2c0.5,1.1-1.1,2.4,0.4,2.2c1.5,1.1,2.4-0.7,4.3-1.1c-0.4,2.1,2.7,0.7,4,1.1
		c0.6-0.5,0-2.2,1.1-2.2c0.2,0.8,0.9,1,0.7,2.2c1.1-0.8,2.2,0.5,3.2-0.4c0.4-1.9-1.1-3.7,0-5c1,1.2,0.9,3.7,1.4,5.4
		c1.2,0.1,2.1,0.6,3.6,0.4c-0.3-4.8-2.2-9.5-4.7-13.7c-2.3-3.9-4.7-8.3-7.9-10.8c-6-4.6-15.5-6-23.8-2.5
		c-13.7,4.5-23.2,15.6-24.8,31.8c1.5,0.3,1.8-0.6,3.2-0.4c0.6-9,4-15.2,9-19.8c-3.4,5.2-7.5,11.5-7.2,19.1c1.4,0.2,2.1-0.3,3.2-0.4
		c0.1-5.3,2-8.5,4-11.9c1.7-2.9,3.3-5.8,5.4-7.2c-3.4,5.4-7.3,10.2-7.9,18.4c1.2,0.6,2.2-0.2,3.6-0.4c1.8-7.8,5.8-13.4,10.4-18.4
		c-3.1,5.8-7.9,9.9-8.6,18c1.7,0.1,2.4-0.7,4-0.7c-0.3-1.3,0.6-1.5,0.4-2.9c1.1-1.8,1.9-4.2,3.2-6.1c1.3-1.8,2.9-4,4.7-4.3
		C-699.9,276.3-699.4,277.2-699.7,277.6z M-696.8,256c1.1,0.5,2.2-0.9,2.5,0c-0.9,1.8-4.8,0.7-5.8,2.5c2.9-1.4,7.4-0.4,9.7-1.4
		C-691.6,255-695.4,253.1-696.8,256z M-659,306.4c-0.2-2,1.2-2.5,1.4-4c2.5-12.8-9.7-10.2-21.2-11.2c-1.7-0.1-3.1-0.6-4.3-0.7
		c-8.5-0.5-19.2,1.2-28.4,2.5c-6.7,1-17.5,2.2-20.9,6.1c-0.5,4.6-0.7,11.6,3.6,12.6c-0.1-1.7-0.9-3.8-1.1-5.8
		c-0.3-2.5-0.5-5.5,0.7-6.5c0.1,1.4-0.2,2.8,0,4.3c0.3,2.9,1.7,8.3,3.6,7.6c0.5-3.5-1.6-9.8,0-12.6c0.2,4.2,0.7,8.8,2.2,12.6
		c1,0,1.9,0,2.9,0c0-4.6-1.6-9.4-1.1-13.3c1.4,4.8,1.3,8.9,3.2,13c0.3-1,1.1,0.5,2.2,0c-0.2-3.7-1.1-10.2,0.4-12.2
		c0.5,4,0.7,8.2,1.4,11.9c1.6,0.3,2.2-0.5,3.6-0.4c0.3-4.5-0.9-8.8-0.4-11.5c1.5,3.2,1.4,8.2,1.8,11.5c0.8,0,1.7,0,2.5,0
		c1-1.4-0.5-5.3,1.1-6.1c0.9,1.4-0.2,4.8,1.1,5.8c1.8,0.2,2.5-0.6,4.3-0.4c0.9-3.2-0.2-9.8,0.7-11.9c1.2,3.4-0.2,10.3,1.8,11.9
		c2.4,0,1.3-3.2,1.4-4.7c0.4-4.1,0.4-8.9,1.1-11.5c0.5,5.9-0.2,10.8,0.7,15.8c1.2,0,1.8-0.6,3.2-0.4c0.8-2.3,0.2-8.5,1.8-11.2
		c0.2,3.5-0.5,7.9,0.4,10.8c1,0,1.9,0,2.9,0c1.5-4.6,1.1-11.1,2.9-15.5c0,5.4-0.9,9.9-1.1,15.1c0.6,0.5,2.1-0.3,3.6,0
		c0.9-3.9,0.6-9,2.2-12.2c0.2,4.7-0.3,9.2-0.7,12.2c1.3,0,2.6,0,4,0c0.6-1.6,0.8-3.7,1.1-5.8c0.3-2.1,0.1-4.6,1.4-5.8
		c0.3,4-1.5,7.8-0.4,11.5c2,0.4,2.1-1.3,3.6-0.4c1-3.2,0.6-8,2.2-11.5c0.5,4.1-0.8,8.3,0,11.5c0.5-1.1,1.6,0.3,2.5,0
		c0.8-1.5,1-3.5,1.4-5.4c0.4-2,0.4-4.3,1.8-5.4c-0.3,3-0.5,6.8-1.1,10.4C-660.6,308.2-660.9,306.2-659,306.4z M-662.2,310.4
		c0.4,2.5,1.7,6,1.1,8.3c-0.7-1.1-1.2-2.8-1.8-4.3c-0.5-1.3-0.4-3.9-2.5-3.6c-0.8,3.1,1.3,6.9,1.8,10.4c0.2,1.4,0.5,3.7-0.4,4.7
		c-0.4-4.1-1.7-7-2.5-10.1c-0.5-1.7-0.3-4-1.8-5c0.2,4.4,2.1,17.2,5.8,20.9c2,2,5.9,1,8.6-0.4c2.1-3.2,2-10.7-4.3-9.4
		c-1,0.6-1.6,3-0.7,4.3c1.1,1.4,2.9-1.3,3.2,0.4c-0.4,4.8-5.7,1.9-6.1-1.1c-0.5-3.6,2.2-6.2,5-6.8c-3.5-0.9-2.1-6.5-4-9
		C-661,310.2-661.6,310.4-662.2,310.4z M-710.1,313.3c-3.1,0.3-6-0.5-8.6,0.7c0.3,5.2-2.2,9.7-1.1,14c1.4,5.6,5.4,10.8,9.7,13.3
		c3-2.3,6-4.6,11.9-4c0-2.2,3.1-5.2,4.7-2.5c-1.1,1-3.1,1-2.5,3.6c1.5,1.4,3.7,0.4,4.7-0.7c1.7,2.4,4.5-0.2,6.1-1.1
		c-0.8-2.7-3.3-4.9-4-7.9c-0.5-2.2-1.1-5.9-0.7-8.3c0.6-3.4,5.3-7.6,9-7.9c4.3-0.4,12,2.7,9.4,7.2c-2.8-5.3-10.9-6.5-14.4-2.2
		c-4,5-0.6,14.5,3.2,18c0.1,1.1-0.8,1.1-0.7,2.2c2.9,0.2,5.1,1.1,7.6,1.8c2-1.1,3.6-3.3,5-5.4c1.3-1.9,3.5-4.9,3.6-7.2
		c0.1-2.2-1.6-5.3-2.2-7.9c-0.7-2.9-1.1-5.5-1.8-8.3C-685.7,309-697.8,312.3-710.1,313.3z M-722.7,314c-2.2,4.5-2.9,10.5-5,15.1
		c-0.2-4.7,2.3-9.7,2.9-14.8c-2.7,2.1-1.9,7.7-4.7,9.7c0.8-1.5,0.7-4,1.1-6.1c0.2-1.4,1.7-3,0.4-3.6c-2.8,3.5-1,9.7-4.7,11.9
		c8.2,0,3.5,14.1-1.1,8.3c4,0.5,4.6-6.1,1.1-6.1c-2.6,0-3.8,4.6-3.6,5.8c0.6,2.9,4.3,5,7.2,4.3c2.5-0.6,5.3-5.5,6.1-9
		c1.2-5.1,1.7-11,2.5-15.5C-721.3,314-722,314-722.7,314z M-656.5,315.1c0.3,1.6,1.9,2.8,0.4,4.3c1.1-0.3,1.3,0.4,2.2,0.4
		c0.9-1.5,1.5-3.9,0-5C-654.9,314.7-656,314.6-656.5,315.1z M-733.5,325.9c-0.6-0.3-1.3-0.7-1.1-1.8c0.5-0.1,0.7-0.5,1.4-0.4
		c0.2-1.2-0.2-1.7-0.4-2.5C-739.9,320.1-737,331.4-733.5,325.9z M-664.4,339.6c0.5-2.3,0.9-4.3,1.1-6.1c-1.6-0.8-2.2-2.6-3.2-4
		C-669.6,332.9-666.3,336.9-664.4,339.6z M-721.3,330.9C-722.2,333.8-720.2,328.5-721.3,330.9L-721.3,330.9z M-723.1,339.2
		c-0.4-2.4,1.6-4.4,0.7-6.1C-722.3,335.4-725.7,337.4-723.1,339.2z M-720.9,345.3c-0.3-4.4,3.7-8.9,0.7-11.5
		C-721,337-724,342.1-720.9,345.3z M-666.5,343.9c3.2-2.9-1-7.2-2.9-9.4C-671.2,337-668.1,342.7-666.5,343.9z M-719.8,347.8
		c3.4,0.7,3.6-4.8,4-8.3c-0.4-0.8-1-1.4-1.8-1.8C-718.6,340.9-719.7,343.9-719.8,347.8z M-673.7,340.6c1.3,1,3.2,1.3,4.7,2.2
		c-0.5-1.9-1.5-3.3-2.5-4.7C-672.1,339.2-673.2,339.6-673.7,340.6z M-714.8,347.5c-2.5,1.8-4.7,3.5-6.8,5c-0.6,0.4-2,0.7-1.8,1.8
		c9.2-2.6,13.8-9.7,21.6-13.7c0.1-0.4,0.6-0.8,0-1.1C-707.4,341-710.6,344.5-714.8,347.5z M-664.7,350c2.5,0.2,6.9,0.6,8.6-1.4
		c-10.8,0.9-16.8-7.9-26.6-7.9c1.9,0.5,3.8,1.8,5.8,2.5c2.2,0.8,4.8,0.7,6.1,2.5c-2.9-0.6-5.9-1.2-8.6-2.2c-2.9-1-5.3-2.5-7.6-2.9
		C-682.4,345-673.3,349.2-664.7,350z M-693.5,345c1.7,0,3.3-0.1,4.3-0.7c-1.3-0.6-0.2-3.6-2.2-3.6
		C-691.7,342.5-693.6,342.7-693.5,345z M-715.1,345c1.6,0,1.3-1.8,2.9-1.8c-0.1-1.2-1.2-1.4-2.2-1.8
		C-714.3,342.9-715.4,343.3-715.1,345z M-718.7,356.5c7-2.9,13.7-8.1,18.4-13c0.5-0.6,2.4-2.1,1.1-2.2c-10.3,3.4-16.4,16-28.8,13.7
		C-726.7,357.2-722.1,356.3-718.7,356.5z M-710.1,353.6c5.9-2.4,10.8-5.8,14.4-10.4c-0.1-0.4,0.1-1-0.4-1.1
		C-701.2,345.5-705,350.2-710.1,353.6z M-667.3,351.1c-7.7-0.8-13.2-3.9-18.7-6.8C-683,349.4-674.4,352.4-667.3,351.1z
		 M-696.1,346.8c1.1,2.8,7.4,1.8,8.6-0.4C-690.4,346.5-693,347.4-696.1,346.8z M-684.5,354.3c-1.9-0.5-1-3.8-2.5-4.7
		c-2.8,0.1-1.3,4.5-2.9,5.8c-0.8-1.8-0.4-2.8-0.7-4.7c-0.9,0.4-2.2,0.4-3.6,0.4c0.2,1.8-0.8,3-1.1,4.7c-0.4,2.2,0.6,5.1-1.4,6.8
		c-0.3-1.8,0.2-3.8,0.4-5.4c0.2-3.1,1.1-6.3-0.4-6.8c-1.3,0.4-1.5,2.3-1.8,3.6c-1,4.3-0.7,9.4-0.4,14c5,2.5,14.9,1.1,14.8-4.7
		c-0.2-5.6-11.2-6.8-7.9,1.1c0.8,0.2,2.2,0.7,2.9,0c0.3-2-2.8-1.5-1.4-3.6c4.1-0.6,4.2,4.5,2.2,6.1c-8.4,2.5-8.1-10.9-0.7-11.2
		c3.8-0.1,7.1,4.6,7.9,7.6c5-1.3,1.3-7.3,1.1-11.5c-1.5-0.9-3-1.8-4.7-2.5C-685.3,351.3-683.4,352.8-684.5,354.3z M-699.3,350.7
		c-0.5,0-0.5-0.5-1.1-0.4c-1.8,1.8-4.3,9.1-3.6,13c0.4,2,1.8,3.1,3.6,3.6C-701.3,361.9-700.7,355.4-699.3,350.7z M-677.3,360.1
		c2.9-1.3,3.3-3.3,2.2-6.5c-1-0.4-2.1-0.8-3.2-1.1C-678,355-677.5,357.4-677.3,360.1z M-707.9,355c-1.6,3.9-0.8,8.4,2.9,8.3
		c-0.6-4,1.3-7.6,0.7-10.4C-705.1,354-706.6,354.5-707.9,355z M-673,355.8c0-0.7,1-0.5,0.7-1.4c-0.5,0-0.5-0.5-1.1-0.4
		C-673.2,354.5-673.8,355.8-673,355.8z M-711.9,357.2c0.1,1.2,1.1,1.6,1.8,2.2c-0.1-1.3,0.1-2.3,0.4-3.2
		C-710.8,356.1-711.1,356.9-711.9,357.2z"></path>
</g>
<g>
	<path d="M-659.7,396.2c-3.5-2.2-1.8-7.2-0.3-10.1c-0.8-2.7-2.2-4.4-5.4-4c-2.8,0.3-8.7,6.3-10.2,12.2c-2.2,8.4,0.4,16.5,6.7,19.1
		c0.7-0.9,2.1,0.1,3.2-0.3c1.8-0.6,2.3-2.4,4-3.2c-0.1,3.4-4.7,7.1-9.1,6.4c-3.2-0.5-6.3-5-7.1-8c-0.8-2.9-0.9-8.5,0.1-12.6
		c1.8-7.1,7.1-11.5,10.6-15.4c3-0.2,7.5-0.9,8.6,3c3.7-4,8.7-12.3,4.1-18.3c-4.5-2.2-8.7,0.7-8.7,5.3c-0.6,1.8,1.6,0.9,1.4,2.2
		c-0.8,0.6-1.5,1.3-2.9,1.4c-2.6-4.6,2-9.3,5.1-11.5c6.6-1.2,9.9,3.5,9.6,8.7c-0.3,5.3-6,10.4-8.4,15.8
		C-659.5,389.7-658,393.1-659.7,396.2z"></path>
	<path d="M-764.2,370.1c-0.9,1.3-1,3.3-3.3,3.2c0.1-1.1,1.1-1.3,0.7-2.9c-0.4-1.2-1.8-1.4-2.5-2.2c-2.2,1.8-4.1,3.9-5.5,6.4
		c-1.5,2.9-1.7,6.2-2.6,9.3c-0.2,0.7-1,1.1-1.1,1.8c-2.5,11.5-6.3,23-12.9,30.5c-4.5,3.2-11.6,1.6-11.5-4.1c0.1-2.8,3.9-9.2,9.4-7.8
		c1,1.3,1.4,4.4,0.7,5.4c-3.1,0.3-0.7-2.7-2.9-3.3c-3.1,0.1-5.1,3-4.7,5.7c0.4,2.5,4,3.9,6.8,2.9c0.2-0.1,3.1-2.6,3.6-3.2
		c1.2-1.5,1.9-4,2.9-6.5c0.9-2.2,2.3-4.3,2.9-6.1c0.4-1.3,0.3-2.7,0.8-4c0.8-2.4,2.2-6.3,2.2-9c0-1.3-1.2,0.8-1.1-0.4
		c-1.1-1.8-2.7-4.3-4.6-6.9c-1.6-2.2-3.4-5.5-5-6.5c-2.7-1.8-6.4-1.8-7.9,0.7c-0.3,0.5-0.1,1.1-0.4,1.4c-1.8,2.3-1.1,6.2,2.1,7.6
		c1.9,0.5,1.5-1.4,3.2-1.1c0,1.8-1.4,2.2-2.2,3.2c-3.1,0.1-5.5-1.8-6.1-4c-1.2-5,2.4-9.2,5.1-11.1c11-0.4,12.9,8.3,17.9,13.8
		c1.8-5.2,4.3-9.7,6.6-14.3c2.3-1.1,4.8-4,7.6-1.7C-764.9,367.8-765.1,369.1-764.2,370.1z"></path>
	<path d="M-737.7,380.4c0.1,0,0.4-0.4,0.7-0.4c3.6,0.4,5.9,5.3,6.4,8c1,5.8-1,11.1-2.6,14.4c-1.6,3.2-3.4,6.7-6.2,8.9
		c-1.1,0.9-3.4,2.1-4.7,2.1c-2.3,0-5.8-2.2-6.8-4.4c-1.2-2.6-1.3-6.4-1-9.7C-751.2,390.1-746.1,380.6-737.7,380.4z M-749.7,398.6
		c-0.2,5.4,1.9,11.9,6.7,11.6c4.1-0.2,8.5-9,9.1-12.5c1-5.6-0.1-16.5-7.4-14.8C-746.5,384.1-749.5,392.4-749.7,398.6z"></path>
	<path d="M-699.5,381.8c-0.1,1.3-0.8,1.8-1.8,2.1c-1.4,0.5-0.1-1.6-1.4-1.1c-4.5-0.3-3.5,3.9-4,8.2c-0.6,5.2-1.5,13.1-1.6,16.9
		c0,2.9,0.2,5.4-1.5,6.5c-2,0.2-1.6-2-1.8-3.6c-1.9,1.6-4.1,3.6-7.2,2.8c-3.5-5.9,0.4-14.8,8-14c1.9-4.7,0.4-13.3,3.7-16.9
		C-705.6,381.2-702.1,379.3-699.5,381.8z M-716.4,411.2c2.3-0.3,3.6-1.7,5.1-2.8c-0.2-1.9,0.4-4.5-0.3-5.8
		C-716.6,399.7-720.2,408.2-716.4,411.2z"></path>
	<path d="M-716.9,388.5c-1.5-0.4,0.6-2.9-1-3.6c-2.9-0.5-5.5,1.9-6.5,3.9c-1.4,2.7-2.3,9.6-2.6,14c-0.2,3.3,0.1,6.9-0.1,10.1
		c0.9,0.6,3.1,0,4.7,0.8c-1.9,3.2-8.8,0.9-13,2.4c0.5-3.2,3.6-2.4,5.4-2.8c0.9-2.9-0.2-7.3,0.8-11.9c1.7-7.5,4-21.1,12.4-19
		C-713.8,383.1-713.6,387.2-716.9,388.5z"></path>
	<path d="M-597.9,407.9c0.7,3.3,3.3,5.4,6.4,4.7c2.5-0.5,2.2-3.6,4.7-3.9c-0.4,1.5-0.7,2.7-1.5,3.6c-0.9,1.1-3.3,2.6-4,2.8
		c-8.8,2.6-10.5-9.6-6.3-15.5c1.6-2.3,4.7-4.3,6.9-3.5c4.7,1.6,0,7.3-2.2,9C-595.3,406.1-596.6,406.9-597.9,407.9z M-598.6,405.7
		c0.9,0.6,1.9-0.7,2.9-1.4c2.1-1.4,3.7-2.4,3.6-5.4C-595.5,396.2-598.2,401.8-598.6,405.7z"></path>
	<path d="M-612.6,400.9c2.1-0.9,2.2-2.4,4-2.5c2.2-0.1,5,2.4,5.4,4.7c0.6,4.2-3.6,10.8-5.9,11.1c-2.3,0.4-3.9-0.7-4.3-2.9
		c1.5-1.1,2.6,0.6,4,0.8c3.8-1.6,5.3-10.2,0.1-11.2c-0.9,0.4-2.6,1.1-3.3,2.1c-0.4,0.6,0.3,0.6,0,1.8c-0.2,0.8-1,1.6-1.1,2.1
		c-0.2,1.5-0.2,3.5-0.4,5.4c-0.7,6.7-0.4,16-1.6,21.9c3,2.5,8.4,2.4,11.2-0.6c0.3-1.5-0.6-4.3,0.8-4.7c3.4,2.4-0.6,5.9-1.5,8.3
		c-2,0.8-7.4,2.3-10.8,0.6c-2.9,4.8-3.7,11.8-10.2,12.9c0.6-2.1,2.8-2.3,4-3.9c0.4-0.5,0.8-2.3,1.5-3.2c0.8-1.2,1.9-3.8,2.2-6.1
		c-4.4-2.5-9-5-13.3-7.7c-1.3,1.4-1.5,3.8-1.9,6.1c-2.7,4.6-6.7,13.1-14.1,11.8c-3.6-0.6-6.6-4.9-6-10.5c0.8-7.5,6.7-13.7,16.3-12.5
		c1.4,0.2,2.4,0.8,3.6,1.1c1.3-6.4,0.2-16.7,2-24.1c-1.1-1-1.9,1.5-3.6,1c1.3-2.3,4.7-4.4,6.5-5c1.5,0.7-0.9,2.3-0.4,3.6
		c1.7-0.3,4.3-4,7.9-2.1c5.5,2.8-1.2,18.3-8,14.7c1.1-2.2,2.1-0.6,4.3-2.1c3-2.1,5.7-11.2-1-10.4c-7.2,0.8-3.3,17.8-5.3,24.4
		c0.8,1.1,2.2,2.3,3.6,1.8c2.2,3,6.1,4.5,9.7,6.2c2.4-10.6,0.8-23.1,3.9-33.1c0-1.5-1.6,0.5-2.2-0.7c0.5-2.2,3.4-1.9,4.7-3.2
		C-610.3,398.3-612.5,399.1-612.6,400.9z M-651.1,442.7c8.1,8.8,16.6-4.8,16.7-14.3C-645.1,422.9-655.5,432.3-651.1,442.7z"></path>
	<path d="M-702.3,407.3c0.3,3,1.9,5.1,3.9,5.1c2.5,0,2.8-3.2,5.1-3.6c-0.9,4.3-3.3,4.9-6.9,6.4c-3.1-1.7-5.6-4.4-5.3-8.7
		c0.4-5.6,7.7-12.6,11.6-8.9C-691.9,402.7-700.1,404.4-702.3,407.3z M-702.6,404.8c2.3-0.2,5.6-2.3,6.9-4.6
		C-697.8,396.3-702.6,401.1-702.6,404.8z"></path>
	<path d="M-643.5,400.3c-0.1,1.3-0.8,1.8-1.8,2.1c-1.4-0.4-1.4-2.2-3.2-2.2c-4.9,0.7-6.8,10.8-1.6,12.6c4.7-1.1,3.7-8.1,7.6-10
		c0.2,3.6,0.6,9.1,5,9.8c-1.8,5-6.1,0.2-6.8-2.9c-2.1,2.2-3.2,5.4-6.9,6.1C-661.7,412.6-651.4,392-643.5,400.3z"></path>
	<path d="M-771.7,399.2c0,0.6,0.3,0.9,0.7,1.1c-0.5,4.1-3.4,5.7-6.5,7.1c0.9,1.8,1.9,3.6,4.3,4c2.2-0.6,2.3-3.3,4.7-3.6
		c-1,3.3-3.3,5.4-6.5,6.4c-1.8-1.3-4.6-2.6-5-5.4C-780.6,405-777.2,396.8-771.7,399.2z M-777.9,405.9c1.9-0.8,3.9-1.6,4.7-3.6
		C-774.7,398.2-777.8,403.2-777.9,405.9z"></path>
</g>
</svg>
