<svg xml:space="preserve" style="enable-background:new -823 232.2 252 237.8;" viewBox="-823 232.2 252 237.8" y="0px" x="0px" xmlns:xlink="http://www.w3.org/1999/xlink" xmlns="http://www.w3.org/2000/svg" id="Layer_2">
<style type="text/css">
	.st0{fill:#FFD86D;}
</style>
<g>
	<path d="M-659.7,340.8c-3.5-2.2-1.8-7.2-0.3-10.1c-0.8-2.7-2.2-4.4-5.4-4c-2.8,0.3-8.7,6.3-10.2,12.2
		c-2.2,8.4,0.4,16.5,6.7,19.1c0.7-0.9,2.1,0.1,3.2-0.3c1.8-0.6,2.3-2.4,4-3.2c-0.1,3.4-4.7,7.1-9.1,6.4c-3.2-0.5-6.3-5-7.1-8
		c-0.8-2.9-0.9-8.5,0.1-12.6c1.8-7.1,7.1-11.5,10.6-15.4c3-0.2,7.5-0.9,8.6,3c3.7-4,8.7-12.3,4.1-18.3c-4.5-2.2-8.7,0.7-8.7,5.3
		c-0.6,1.8,1.6,0.9,1.4,2.2c-0.8,0.6-1.5,1.3-2.9,1.4c-2.6-4.6,2-9.3,5.1-11.5c6.6-1.2,9.9,3.5,9.6,8.7c-0.3,5.3-6,10.4-8.4,15.8
		C-659.5,334.3-658,337.7-659.7,340.8z" class="st0"></path>
	<path d="M-764.2,314.7c-0.9,1.3-1,3.3-3.3,3.2c0.1-1.1,1.1-1.3,0.7-2.9c-0.4-1.2-1.8-1.4-2.5-2.2
		c-2.2,1.8-4.1,3.9-5.5,6.4c-1.5,2.9-1.7,6.2-2.6,9.3c-0.2,0.7-1,1.1-1.1,1.8c-2.5,11.5-6.3,23-12.9,30.5
		c-4.5,3.2-11.6,1.6-11.5-4.1c0.1-2.8,3.9-9.2,9.4-7.8c1,1.3,1.4,4.4,0.7,5.4c-3.1,0.3-0.7-2.7-2.9-3.3c-3.1,0.1-5.1,3-4.7,5.7
		c0.4,2.5,4,3.9,6.8,2.9c0.2-0.1,3.1-2.6,3.6-3.2c1.2-1.5,1.9-4,2.9-6.5c0.9-2.2,2.3-4.3,2.9-6.1c0.4-1.3,0.3-2.7,0.8-4
		c0.8-2.4,2.2-6.3,2.2-9c0-1.3-1.2,0.8-1.1-0.4c-1.1-1.8-2.7-4.3-4.6-6.9c-1.6-2.2-3.4-5.5-5-6.5c-2.7-1.8-6.4-1.8-7.9,0.7
		c-0.3,0.5-0.1,1.1-0.4,1.4c-1.8,2.3-1.1,6.2,2.1,7.6c1.9,0.5,1.5-1.4,3.2-1.1c0,1.8-1.4,2.2-2.2,3.2c-3.1,0.1-5.5-1.8-6.1-4
		c-1.2-5,2.4-9.2,5.1-11.1c11-0.4,12.9,8.3,17.9,13.8c1.8-5.2,4.3-9.7,6.6-14.3c2.3-1.1,4.8-4,7.6-1.7
		C-764.9,312.4-765.1,313.7-764.2,314.7z" class="st0"></path>
	<path d="M-737.7,325c0.1,0,0.4-0.4,0.7-0.4c3.6,0.4,5.9,5.3,6.4,8c1,5.8-1,11.1-2.6,14.4c-1.6,3.2-3.4,6.7-6.2,8.9
		c-1.1,0.9-3.4,2.1-4.7,2.1c-2.3,0-5.8-2.2-6.8-4.4c-1.2-2.6-1.3-6.4-1-9.7C-751.2,334.7-746.1,325.2-737.7,325z M-749.7,343.2
		c-0.2,5.4,1.9,11.9,6.7,11.6c4.1-0.2,8.5-9,9.1-12.5c1-5.6-0.1-16.5-7.4-14.8C-746.5,328.7-749.5,337-749.7,343.2z" class="st0"></path>
	<path d="M-699.5,326.4c-0.1,1.3-0.8,1.8-1.8,2.1c-1.4,0.5-0.1-1.6-1.4-1.1c-4.5-0.3-3.5,3.9-4,8.2
		c-0.6,5.2-1.5,13.1-1.6,16.9c0,2.9,0.2,5.4-1.5,6.5c-2,0.2-1.6-2-1.8-3.6c-1.9,1.6-4.1,3.6-7.2,2.8c-3.5-5.9,0.4-14.8,8-14
		c1.9-4.7,0.4-13.3,3.7-16.9C-705.6,325.8-702.1,323.9-699.5,326.4z M-716.4,355.8c2.3-0.3,3.6-1.7,5.1-2.8
		c-0.2-1.9,0.4-4.5-0.3-5.8C-716.6,344.3-720.2,352.8-716.4,355.8z" class="st0"></path>
	<path d="M-716.9,333.1c-1.5-0.4,0.6-2.9-1-3.6c-2.9-0.5-5.5,1.9-6.5,3.9c-1.4,2.7-2.3,9.6-2.6,14
		c-0.2,3.3,0.1,6.9-0.1,10.1c0.9,0.6,3.1,0,4.7,0.8c-1.9,3.2-8.8,0.9-13,2.4c0.5-3.2,3.6-2.4,5.4-2.8c0.9-2.9-0.2-7.3,0.8-11.9
		c1.7-7.5,4-21.1,12.4-19C-713.8,327.7-713.6,331.8-716.9,333.1z" class="st0"></path>
	<path d="M-597.9,352.5c0.7,3.3,3.3,5.4,6.4,4.7c2.5-0.5,2.2-3.6,4.7-3.9c-0.4,1.5-0.7,2.7-1.5,3.6
		c-0.9,1.1-3.3,2.6-4,2.8c-8.8,2.6-10.5-9.6-6.3-15.5c1.6-2.3,4.7-4.3,6.9-3.5c4.7,1.6,0,7.3-2.2,9
		C-595.3,350.7-596.6,351.5-597.9,352.5z M-598.6,350.3c0.9,0.6,1.9-0.7,2.9-1.4c2.1-1.4,3.7-2.4,3.6-5.4
		C-595.5,340.8-598.2,346.4-598.6,350.3z" class="st0"></path>
	<path d="M-612.6,345.5c2.1-0.9,2.2-2.4,4-2.5c2.2-0.1,5,2.4,5.4,4.7c0.6,4.2-3.6,10.8-5.9,11.1
		c-2.3,0.4-3.9-0.7-4.3-2.9c1.5-1.1,2.6,0.6,4,0.8c3.8-1.6,5.3-10.2,0.1-11.2c-0.9,0.4-2.6,1.1-3.3,2.1c-0.4,0.6,0.3,0.6,0,1.8
		c-0.2,0.8-1,1.6-1.1,2.1c-0.2,1.5-0.2,3.5-0.4,5.4c-0.7,6.7-0.4,16-1.6,21.9c3,2.5,8.4,2.4,11.2-0.6c0.3-1.5-0.6-4.3,0.8-4.7
		c3.4,2.4-0.6,5.9-1.5,8.3c-2,0.8-7.4,2.3-10.8,0.6c-2.9,4.8-3.7,11.8-10.2,12.9c0.6-2.1,2.8-2.3,4-3.9c0.4-0.5,0.8-2.3,1.5-3.2
		c0.8-1.2,1.9-3.8,2.2-6.1c-4.4-2.5-9-5-13.3-7.7c-1.3,1.4-1.5,3.8-1.9,6.1c-2.7,4.6-6.7,13.1-14.1,11.8c-3.6-0.6-6.6-4.9-6-10.5
		c0.8-7.5,6.7-13.7,16.3-12.5c1.4,0.2,2.4,0.8,3.6,1.1c1.3-6.4,0.2-16.7,2-24.1c-1.1-1-1.9,1.5-3.6,1c1.3-2.3,4.7-4.4,6.5-5
		c1.5,0.7-0.9,2.3-0.4,3.6c1.7-0.3,4.3-4,7.9-2.1c5.5,2.8-1.2,18.3-8,14.7c1.1-2.2,2.1-0.6,4.3-2.1c3-2.1,5.7-11.2-1-10.4
		c-7.2,0.8-3.3,17.8-5.3,24.4c0.8,1.1,2.2,2.3,3.6,1.8c2.2,3,6.1,4.5,9.7,6.2c2.4-10.6,0.8-23.1,3.9-33.1c0-1.5-1.6,0.5-2.2-0.7
		c0.5-2.2,3.4-1.9,4.7-3.2C-610.3,342.9-612.5,343.7-612.6,345.5z M-651.1,387.3c8.1,8.8,16.6-4.8,16.7-14.3
		C-645.1,367.5-655.5,376.9-651.1,387.3z" class="st0"></path>
	<path d="M-702.3,351.9c0.3,3,1.9,5.1,3.9,5.1c2.5,0,2.8-3.2,5.1-3.6c-0.9,4.3-3.3,4.9-6.9,6.4
		c-3.1-1.7-5.6-4.4-5.3-8.7c0.4-5.6,7.7-12.6,11.6-8.9C-691.9,347.3-700.1,349-702.3,351.9z M-702.6,349.4c2.3-0.2,5.6-2.3,6.9-4.6
		C-697.8,340.9-702.6,345.7-702.6,349.4z" class="st0"></path>
	<path d="M-643.5,344.9c-0.1,1.3-0.8,1.8-1.8,2.1c-1.4-0.4-1.4-2.2-3.2-2.2c-4.9,0.7-6.8,10.8-1.6,12.6
		c4.7-1.1,3.7-8.1,7.6-10c0.2,3.6,0.6,9.1,5,9.8c-1.8,5-6.1,0.2-6.8-2.9c-2.1,2.2-3.2,5.4-6.9,6.1
		C-661.7,357.2-651.4,336.6-643.5,344.9z" class="st0"></path>
	<path d="M-771.7,343.8c0,0.6,0.3,0.9,0.7,1.1c-0.5,4.1-3.4,5.7-6.5,7.1c0.9,1.8,1.9,3.6,4.3,4c2.2-0.6,2.3-3.3,4.7-3.6
		c-1,3.3-3.3,5.4-6.5,6.4c-1.8-1.3-4.6-2.6-5-5.4C-780.6,349.6-777.2,341.4-771.7,343.8z M-777.9,350.5c1.9-0.8,3.9-1.6,4.7-3.6
		C-774.7,342.8-777.8,347.8-777.9,350.5z" class="st0"></path>
</g>
</svg>
